<?xml version="1.0" encoding="utf-8"?>
<!-- Generator: Adobe Illustrator 23.0.2, SVG Export Plug-In . SVG Version: 6.00 Build 0)  -->
<svg version="1.1" id="Layer_1" xmlns="http://www.w3.org/2000/svg" xmlns:xlink="http://www.w3.org/1999/xlink" x="0px" y="0px"
	 viewBox="0 0 449.8 90" style="enable-background:new 0 0 449.8 90;" xml:space="preserve">
<style type="text/css">
	.st0{clip-path:url(#SVGID_2_);}
	.st1{fill:#FFFFFF;}
	.st2{clip-path:url(#SVGID_4_);}
	.st3{fill:#005A9C;}
	.st4{clip-path:url(#SVGID_6_);}
	.st5{clip-path:url(#SVGID_8_);}
	.st6{clip-path:url(#SVGID_10_);}
	.st7{clip-path:url(#SVGID_12_);}
	.st8{clip-path:url(#SVGID_14_);}
	.st9{clip-path:url(#SVGID_16_);}
	.st10{clip-path:url(#SVGID_18_);}
	.st11{clip-path:url(#SVGID_20_);}
	.st12{clip-path:url(#SVGID_22_);}
	.st13{clip-path:url(#SVGID_24_);}
	.st14{clip-path:url(#SVGID_26_);}
</style>
<g>
	<defs>
		<rect id="SVGID_1_" width="435.1" height="90"/>
	</defs>
	<clipPath id="SVGID_2_">
		<use xlink:href="#SVGID_1_"  style="overflow:visible;"/>
	</clipPath>
	<g class="st0">
		<path class="st1" d="M29.8,0C13.4,0,0,12.2,0,27.1v35.7C0,77.8,13.4,90,29.8,90h375.4c16.4,0,29.8-12.2,29.8-27.2V27.1
			c0-15-13.4-27.2-29.8-27.2H29.8V0z"/>
	</g>
</g>
<g>
	<defs>
		<rect id="SVGID_3_" width="435.1" height="90"/>
	</defs>
	<clipPath id="SVGID_4_">
		<use xlink:href="#SVGID_3_"  style="overflow:visible;"/>
	</clipPath>
	<g class="st2">
		<path class="st3" d="M431.6,62.8c0,13.1-11.8,23.7-26.4,23.7H29.8c-14.6,0-26.3-10.6-26.3-23.7V27.1C3.5,14,15.3,3.4,29.8,3.4
			h375.4c14.6,0,26.4,10.6,26.4,23.7L431.6,62.8L431.6,62.8z"/>
	</g>
</g>
<g>
	<defs>
		<rect id="SVGID_5_" width="435.1" height="90"/>
	</defs>
	<clipPath id="SVGID_6_">
		<use xlink:href="#SVGID_5_"  style="overflow:visible;"/>
	</clipPath>
	<g class="st4">
		<path class="st1" d="M32.8,29.5h7.5c5.8,0,10.5,0.1,14.6,3c3.9,2.8,6,7.1,6,12.7s-2.1,9.9-6,12.7c-3.9,2.7-8.2,2.9-13.4,2.9h-8.7
			V29.5z M42.7,53.8c6.5,0,9.6-2.5,9.6-8.6c0-6.2-3.2-8.6-9.6-8.6h-1.4v17.3h1.4V53.8z"/>
	</g>
</g>
<g>
	<defs>
		<rect id="SVGID_7_" width="435.1" height="90"/>
	</defs>
	<clipPath id="SVGID_8_">
		<use xlink:href="#SVGID_7_"  style="overflow:visible;"/>
	</clipPath>
	<g class="st5">
		<path class="st1" d="M97.9,56.8c-3.2,3.1-7.5,4.8-11.8,4.8c-3.8,0-7.6-1.4-10.6-3.8c-3.9-3.1-6.1-7.6-6.1-12.6
			c0-4.4,1.7-8.5,4.9-11.6c3.1-3.1,7.4-4.8,11.8-4.8s8.7,1.7,11.8,4.8c3.2,3.1,4.9,7.2,4.9,11.6C102.8,49.7,101.1,53.7,97.9,56.8
			 M94.3,45.2c0-5.1-3.4-9.2-8.2-9.2c-4.8,0-8.2,4.1-8.2,9.2s3.2,9.2,8.2,9.2C90.9,54.4,94.3,50.3,94.3,45.2"/>
	</g>
</g>
<g>
	<defs>
		<rect id="SVGID_9_" width="435.1" height="90"/>
	</defs>
	<clipPath id="SVGID_10_">
		<use xlink:href="#SVGID_9_"  style="overflow:visible;"/>
	</clipPath>
	<g class="st6">
		<path class="st1" d="M112.5,29.5h7.5c5.8,0,10.5,0.1,14.6,3c3.9,2.8,6,7.1,6,12.7s-2.1,9.9-6,12.7c-3.9,2.7-8.2,2.9-13.4,2.9h-8.7
			C112.5,60.8,112.5,29.5,112.5,29.5z M122.4,53.8c6.5,0,9.6-2.5,9.6-8.6c0-6.2-3.2-8.6-9.6-8.6H121v17.3h1.4V53.8z"/>
	</g>
</g>
<g>
	<defs>
		<rect id="SVGID_11_" width="435.1" height="90"/>
	</defs>
	<clipPath id="SVGID_12_">
		<use xlink:href="#SVGID_11_"  style="overflow:visible;"/>
	</clipPath>
	<g class="st7">
		<path class="st1" d="M165.2,42.7H182v1.9c0,10.8-6.1,16.9-16.3,16.9c-5,0-8.9-1.5-12-4.6c-3-3-4.7-7.3-4.7-11.7
			c0-9.5,7.1-16.3,16.7-16.3c6.1,0,10.9,2.5,14.1,7.2l-7.4,3.5c-1.7-2.4-3.9-3.6-6.7-3.6c-5,0-8.2,3.5-8.2,9.5s3.2,9.6,8.2,9.6
			c4.4,0,7.5-2.4,8-5.8h-8.5L165.2,42.7L165.2,42.7z"/>
	</g>
</g>
<g>
	<defs>
		<rect id="SVGID_13_" width="435.1" height="90"/>
	</defs>
	<clipPath id="SVGID_14_">
		<use xlink:href="#SVGID_13_"  style="overflow:visible;"/>
	</clipPath>
	<g class="st8">
		<path class="st1" d="M191.6,29.5h19.1v6.9h-10.8v5.4h10.2v6.7h-10.2v5.3h10.8v7h-19.1V29.5z"/>
	</g>
</g>
<g>
	<defs>
		<rect id="SVGID_15_" width="435.1" height="90"/>
	</defs>
	<clipPath id="SVGID_16_">
		<use xlink:href="#SVGID_15_"  style="overflow:visible;"/>
	</clipPath>
	<g class="st9">
		<path class="st1" d="M220.7,29.5h9.4c4.3,0,7.7,0.1,10.3,2.1c2.3,1.8,3.5,4.4,3.5,7.7c0,4.9-2.5,8-7,8.9l8.5,12.6h-9.6l-7.2-12.3
			v12.3h-8V29.5H220.7z M230.3,44.3c3.6,0,5.3-1.2,5.3-3.9c0-3.3-1.6-4.3-5.1-4.3h-1.7v8.2C228.8,44.3,230.3,44.3,230.3,44.3z"/>
	</g>
</g>
<g>
	<defs>
		<rect id="SVGID_17_" width="435.1" height="90"/>
	</defs>
	<clipPath id="SVGID_18_">
		<use xlink:href="#SVGID_17_"  style="overflow:visible;"/>
	</clipPath>
	<g class="st10">
		<path class="st1" d="M262,55c2.4,0,3.9-1.4,3.9-3.2c0-2.5-1.7-3.2-5.3-4.2c-5.6-1.5-8.4-3.8-8.4-8.7c0-5.8,4.2-10.1,10.8-10.1
			c3.5,0,6.6,0.9,9.3,2.8l-2.7,6.1c-2-1.7-4.1-2.5-6-2.5c-2.1,0-3.5,1.1-3.5,2.6c0,2.2,2.1,2.7,5,3.5c5.6,1.5,8.6,3.5,8.6,9.3
			c0,6.5-4.6,11-12,11c-4.4,0-7.7-1.4-11.1-4.6l3.9-6.3C257,53.5,259.5,55,262,55"/>
	</g>
</g>
<g>
	<defs>
		<rect id="SVGID_19_" width="435.1" height="90"/>
	</defs>
	<clipPath id="SVGID_20_">
		<use xlink:href="#SVGID_19_"  style="overflow:visible;"/>
	</clipPath>
	<g class="st11">
		<path class="st1" d="M285.6,52.9c2.4,0,4.3,1.9,4.3,4.3c0,2.5-1.9,4.3-4.3,4.3s-4.3-1.9-4.3-4.3C281.3,54.9,283.2,52.9,285.6,52.9
			"/>
	</g>
</g>
<g>
	<defs>
		<rect id="SVGID_21_" width="435.1" height="90"/>
	</defs>
	<clipPath id="SVGID_22_">
		<use xlink:href="#SVGID_21_"  style="overflow:visible;"/>
	</clipPath>
	<g class="st12">
		<path class="st1" d="M322.8,40c-2.3-2.6-4.5-3.8-7.2-3.8c-4.9,0-8.2,3.8-8.2,9c0,4.8,3.2,8.7,8.2,8.7c2.8,0,4.9-1.2,7.2-3.8v9.3
			c-2.7,1.3-5.3,2-8.1,2c-9.2,0-15.9-6.9-15.9-16.4c0-9.4,6.6-16.4,15.9-16.4c2.8,0,5.4,0.7,8.1,2V40z"/>
	</g>
</g>
<g>
	<defs>
		<rect id="SVGID_23_" width="435.1" height="90"/>
	</defs>
	<clipPath id="SVGID_24_">
		<use xlink:href="#SVGID_23_"  style="overflow:visible;"/>
	</clipPath>
	<g class="st13">
		<path class="st1" d="M360.5,56.8c-3.2,3.1-7.5,4.8-11.8,4.8c-3.8,0-7.6-1.4-10.6-3.8c-3.9-3.1-6.1-7.6-6.1-12.6
			c0-4.4,1.7-8.5,4.9-11.6c3.1-3.1,7.4-4.8,11.8-4.8s8.7,1.7,11.8,4.8c3.2,3.1,4.8,7.2,4.8,11.6C365.4,49.7,363.7,53.7,360.5,56.8
			 M356.9,45.2c0-5.1-3.4-9.2-8.2-9.2c-4.8,0-8.2,4.1-8.2,9.2s3.2,9.2,8.2,9.2C353.6,54.4,356.9,50.3,356.9,45.2"/>
	</g>
</g>
<g>
	<defs>
		<rect id="SVGID_25_" width="435.1" height="90"/>
	</defs>
	<clipPath id="SVGID_26_">
		<use xlink:href="#SVGID_25_"  style="overflow:visible;"/>
	</clipPath>
	<g class="st14">
		<path class="st1" d="M401.6,60.8l-1.8-13.5c-0.3-1.9-0.5-4.2-0.7-7c-0.4,2.7-1.1,4.6-1.4,5.8l-4.2,14.7h-5.7l-4.2-14.7
			c-0.3-1.2-1-3.1-1.4-5.8c-0.2,2.8-0.4,5.1-0.7,7l-1.8,13.5h-7.9l4.8-31.3h8.4l4.7,16.1c0.3,1,0.7,2.4,1,4.2c0.2-1.8,0.6-3.2,1-4.3
			l4.8-16.1h8.4l4.8,31.3h-8.1L401.6,60.8z"/>
	</g>
</g>
<g>
	<path class="st1" d="M441.2,84.4h-2.1v5.5h-1.9v-5.5h-2.1v-1.5h6.1V84.4z M442,82.9h2.7l1.2,4.7l1.2-4.7h2.7v7h-1.7v-5.3l-1.5,5.3
		h-1.4l-1.5-5.3v5.3H442V82.9z"/>
</g>
</svg>
